<svg id="SvgjsSvg1398" width="1067" height="910" xmlns="http://www.w3.org/2000/svg" version="1.1" xmlns:xlink="http://www.w3.org/1999/xlink" xmlns:svgjs="http://svgjs.com/svgjs"><defs id="SvgjsDefs1399"><marker id="SvgjsMarker1505" markerWidth="14" markerHeight="10" refX="10" refY="5" viewBox="0 0 14 10" orient="auto" markerUnits="userSpaceOnUse" stroke-dasharray="0,0"><path id="SvgjsPath1506" d="M0,0 L14,5 L0,10 L0,0" fill="#323232" stroke="#323232" stroke-width="1"></path></marker><marker id="SvgjsMarker1509" markerWidth="14" markerHeight="10" refX="10" refY="5" viewBox="0 0 14 10" orient="auto" markerUnits="userSpaceOnUse" stroke-dasharray="0,0"><path id="SvgjsPath1510" d="M0,0 L14,5 L0,10 L0,0" fill="#323232" stroke="#323232" stroke-width="1"></path></marker><marker id="SvgjsMarker1513" markerWidth="14" markerHeight="10" refX="10" refY="5" viewBox="0 0 14 10" orient="auto" markerUnits="userSpaceOnUse" stroke-dasharray="0,0"><path id="SvgjsPath1514" d="M0,0 L14,5 L0,10 L0,0" fill="#323232" stroke="#323232" stroke-width="1"></path></marker><marker id="SvgjsMarker1521" markerWidth="14" markerHeight="10" refX="10" refY="5" viewBox="0 0 14 10" orient="auto" markerUnits="userSpaceOnUse" stroke-dasharray="0,0"><path id="SvgjsPath1522" d="M0,0 L14,5 L0,10 L0,0" fill="#323232" stroke="#323232" stroke-width="1"></path></marker><marker id="SvgjsMarker1529" markerWidth="14" markerHeight="10" refX="10" refY="5" viewBox="0 0 14 10" orient="auto" markerUnits="userSpaceOnUse" stroke-dasharray="0,0"><path id="SvgjsPath1530" d="M0,0 L14,5 L0,10 L0,0" fill="#323232" stroke="#323232" stroke-width="1"></path></marker><marker id="SvgjsMarker1533" markerWidth="14" markerHeight="10" refX="10" refY="5" viewBox="0 0 14 10" orient="auto" markerUnits="userSpaceOnUse" stroke-dasharray="0,0"><path id="SvgjsPath1534" d="M0,0 L14,5 L0,10 L0,0" fill="#323232" stroke="#323232" stroke-width="1"></path></marker><marker id="SvgjsMarker1537" markerWidth="14" markerHeight="10" refX="10" refY="5" viewBox="0 0 14 10" orient="auto" markerUnits="userSpaceOnUse" stroke-dasharray="0,0"><path id="SvgjsPath1538" d="M0,0 L14,5 L0,10 L0,0" fill="#323232" stroke="#323232" stroke-width="1"></path></marker><marker id="SvgjsMarker1541" markerWidth="14" markerHeight="10" refX="10" refY="5" viewBox="0 0 14 10" orient="auto" markerUnits="userSpaceOnUse" stroke-dasharray="0,0"><path id="SvgjsPath1542" d="M0,0 L14,5 L0,10 L0,0" fill="#323232" stroke="#323232" stroke-width="1"></path></marker><marker id="SvgjsMarker1545" markerWidth="14" markerHeight="10" refX="10" refY="5" viewBox="0 0 14 10" orient="auto" markerUnits="userSpaceOnUse" stroke-dasharray="0,0"><path id="SvgjsPath1546" d="M0,0 L14,5 L0,10 L0,0" fill="#323232" stroke="#323232" stroke-width="1"></path></marker><marker id="SvgjsMarker1549" markerWidth="14" markerHeight="10" refX="10" refY="5" viewBox="0 0 14 10" orient="auto" markerUnits="userSpaceOnUse" stroke-dasharray="0,0"><path id="SvgjsPath1550" d="M0,0 L14,5 L0,10 L0,0" fill="#323232" stroke="#323232" stroke-width="1"></path></marker><marker id="SvgjsMarker1553" markerWidth="14" markerHeight="10" refX="10" refY="5" viewBox="0 0 14 10" orient="auto" markerUnits="userSpaceOnUse" stroke-dasharray="0,0"><path id="SvgjsPath1554" d="M0,0 L14,5 L0,10 L0,0" fill="#323232" stroke="#323232" stroke-width="1"></path></marker><marker id="SvgjsMarker1557" markerWidth="14" markerHeight="10" refX="10" refY="5" viewBox="0 0 14 10" orient="auto" markerUnits="userSpaceOnUse" stroke-dasharray="0,0"><path id="SvgjsPath1558" d="M0,0 L14,5 L0,10 L0,0" fill="#323232" stroke="#323232" stroke-width="1"></path></marker><marker id="SvgjsMarker1567" markerWidth="14" markerHeight="10" refX="10" refY="5" viewBox="0 0 14 10" orient="auto" markerUnits="userSpaceOnUse" stroke-dasharray="0,0"><path id="SvgjsPath1568" d="M0,0 L14,5 L0,10 L0,0" fill="#323232" stroke="#323232" stroke-width="1"></path></marker><marker id="SvgjsMarker1571" markerWidth="14" markerHeight="10" refX="10" refY="5" viewBox="0 0 14 10" orient="auto" markerUnits="userSpaceOnUse" stroke-dasharray="0,0"><path id="SvgjsPath1572" d="M0,0 L14,5 L0,10 L0,0" fill="#323232" stroke="#323232" stroke-width="1"></path></marker><marker id="SvgjsMarker1575" markerWidth="14" markerHeight="10" refX="10" refY="5" viewBox="0 0 14 10" orient="auto" markerUnits="userSpaceOnUse" stroke-dasharray="0,0"><path id="SvgjsPath1576" d="M0,0 L14,5 L0,10 L0,0" fill="#323232" stroke="#323232" stroke-width="1"></path></marker><marker id="SvgjsMarker1579" markerWidth="14" markerHeight="10" refX="10" refY="5" viewBox="0 0 14 10" orient="auto" markerUnits="userSpaceOnUse" stroke-dasharray="0,0"><path id="SvgjsPath1580" d="M0,0 L14,5 L0,10 L0,0" fill="#323232" stroke="#323232" stroke-width="1"></path></marker><marker id="SvgjsMarker1583" markerWidth="14" markerHeight="10" refX="10" refY="5" viewBox="0 0 14 10" orient="auto" markerUnits="userSpaceOnUse" stroke-dasharray="0,0"><path id="SvgjsPath1584" d="M0,0 L14,5 L0,10 L0,0" fill="#323232" stroke="#323232" stroke-width="1"></path></marker></defs><g id="SvgjsG1400" transform="translate(368,100.5)"><path id="SvgjsPath1401" d="M 0 0L 266 0L 266 70L 0 70Z" stroke="rgba(50,50,50,1)" stroke-width="2" fill-opacity="1" fill="#ffffff"></path><g id="SvgjsG1402"><text id="SvgjsText1403" font-family="微软雅黑" text-anchor="middle" font-size="13px" width="246px" fill="#323232" font-weight="400" align="middle" lineHeight="125%" anchor="middle" family="微软雅黑" size="13px" weight="400" font-style="" opacity="1" y="9.375" transform="rotate(0)"><tspan id="SvgjsTspan1404" dy="16" x="133"><tspan id="SvgjsTspan1405" style="text-decoration:;font-size: inherit;">在 10 个组件调用</tspan></tspan><tspan id="SvgjsTspan1406" dy="16" x="133"><tspan id="SvgjsTspan1407" style="text-decoration:;font-size: inherit;">const {data} = </tspan><tspan id="SvgjsTspan1408" style="text-decoration:;">useUserInfo()</tspan></tspan><tspan id="SvgjsTspan1409" dy="16" x="133"><tspan id="SvgjsTspan1410" style="text-decoration:;font-size: inherit;">data 此时为设置的初始数据</tspan></tspan></text></g></g><g id="SvgjsG1411" transform="translate(368,214)"><path id="SvgjsPath1412" d="M 0 0L 266 0L 266 70L 0 70Z" stroke="rgba(50,50,50,1)" stroke-width="2" fill-opacity="1" fill="#ffffff"></path><g id="SvgjsG1413"><text id="SvgjsText1414" font-family="微软雅黑" text-anchor="middle" font-size="13px" width="246px" fill="#323232" font-weight="400" align="middle" lineHeight="125%" anchor="middle" family="微软雅黑" size="13px" weight="400" font-style="" opacity="1" y="17.375" transform="rotate(0)"><tspan id="SvgjsTspan1415" dy="16" x="133"><tspan id="SvgjsTspan1416" style="text-decoration:;">页面渲染结束</tspan></tspan><tspan id="SvgjsTspan1417" dy="16" x="133"><tspan id="SvgjsTspan1418" style="text-decoration:;">useEffect 依次执行</tspan></tspan></text></g></g><g id="SvgjsG1419" transform="translate(25,326.5)"><path id="SvgjsPath1420" d="M 0 0L 174 0L 174 70L 0 70Z" stroke="rgba(50,50,50,1)" stroke-width="2" fill-opacity="1" fill="#ffffff"></path><g id="SvgjsG1421"><text id="SvgjsText1422" font-family="微软雅黑" text-anchor="middle" font-size="13px" width="154px" fill="#323232" font-weight="400" align="middle" lineHeight="125%" anchor="middle" family="微软雅黑" size="13px" weight="400" font-style="" opacity="1" y="25.375" transform="rotate(0)"><tspan id="SvgjsTspan1423" dy="16" x="87"><tspan id="SvgjsTspan1424" style="text-decoration:;">第一个</tspan></tspan></text></g></g><g id="SvgjsG1425" transform="translate(162,815)"><path id="SvgjsPath1426" d="M 0 0L 174 0L 174 70L 0 70Z" stroke="rgba(50,50,50,1)" stroke-width="2" fill-opacity="1" fill="#ffffff"></path><g id="SvgjsG1427"><text id="SvgjsText1428" font-family="微软雅黑" text-anchor="middle" font-size="13px" width="154px" fill="#323232" font-weight="400" align="middle" lineHeight="125%" anchor="middle" family="微软雅黑" size="13px" weight="400" font-style="" opacity="1" y="9.375" transform="rotate(0)"><tspan id="SvgjsTspan1429" dy="16" x="87"><tspan id="SvgjsTspan1430" style="text-decoration:;">数据请求成功</tspan></tspan><tspan id="SvgjsTspan1431" dy="16" x="87"><tspan id="SvgjsTspan1432" style="text-decoration:;">将状态改为 stale</tspan></tspan><tspan id="SvgjsTspan1433" dy="16" x="87"><tspan id="SvgjsTspan1434" style="text-decoration:;">组件重新渲染</tspan></tspan></text></g></g><g id="SvgjsG1435" transform="translate(643,25)"><path id="SvgjsPath1436" d="M 0 0L 174 0L 174 53L 0 53Z" stroke="rgba(50,50,50,1)" stroke-width="2" fill-opacity="1" fill="#ffffff"></path><g id="SvgjsG1437"><text id="SvgjsText1438" font-family="微软雅黑" text-anchor="middle" font-size="13px" width="154px" fill="#323232" font-weight="400" align="middle" lineHeight="125%" anchor="middle" family="微软雅黑" size="13px" weight="400" font-style="" opacity="1" y="16.875" transform="rotate(0)"><tspan id="SvgjsTspan1439" dy="16" x="87"><tspan id="SvgjsTspan1440" style="text-decoration:;">点击跳转新页面</tspan></tspan></text></g></g><g id="SvgjsG1441" transform="translate(333.5,588.5)"><path id="SvgjsPath1442" d="M 0 35L 87 0L 174 35L 87 70L 0 35Z" stroke="rgba(50,50,50,1)" stroke-width="2" fill-opacity="1" fill="#ffffff"></path><g id="SvgjsG1443"><text id="SvgjsText1444" font-family="微软雅黑" text-anchor="middle" font-size="13px" width="154px" fill="#323232" font-weight="400" align="middle" lineHeight="125%" anchor="middle" family="微软雅黑" size="13px" weight="400" font-style="" opacity="1" y="25.375" transform="rotate(0)"><tspan id="SvgjsTspan1445" dy="16" x="87"><tspan id="SvgjsTspan1446" style="text-decoration:;">检查 refetchOnMount</tspan></tspan></text></g></g><g id="SvgjsG1447" transform="translate(162,699)"><path id="SvgjsPath1448" d="M 0 0L 174 0L 174 63L 0 63Z" stroke="rgba(50,50,50,1)" stroke-width="2" fill-opacity="1" fill="#ffffff"></path><g id="SvgjsG1449"><text id="SvgjsText1450" font-family="微软雅黑" text-anchor="middle" font-size="13px" width="154px" fill="#323232" font-weight="400" align="middle" lineHeight="125%" anchor="middle" family="微软雅黑" size="13px" weight="400" font-style="" opacity="1" y="13.875" transform="rotate(0)"><tspan id="SvgjsTspan1451" dy="16" x="87"><tspan id="SvgjsTspan1452" style="text-decoration:;font-size: inherit;">发送请求</tspan></tspan><tspan id="SvgjsTspan1453" dy="16" x="87"><tspan id="SvgjsTspan1454" style="text-decoration:;font-size: inherit;">将状态改为 fetching</tspan></tspan></text></g></g><g id="SvgjsG1455" transform="translate(184,25)"><path id="SvgjsPath1456" d="M 17.666666666666668 0L 166.33333333333334 0C 189.88888888888889 0 189.88888888888889 53 166.33333333333334 53L 17.666666666666668 53C -5.888888888888889 53 -5.888888888888889 0 17.666666666666668 0Z" stroke="rgba(50,50,50,1)" stroke-width="2" fill-opacity="1" fill="#ffffff"></path><g id="SvgjsG1457"><text id="SvgjsText1458" font-family="微软雅黑" text-anchor="middle" font-size="13px" width="164px" fill="#323232" font-weight="400" align="middle" lineHeight="125%" anchor="middle" family="微软雅黑" size="13px" weight="400" font-style="" opacity="1" y="16.875" transform="rotate(0)"><tspan id="SvgjsTspan1459" dy="16" x="92"><tspan id="SvgjsTspan1460" style="text-decoration:;">首次页面渲染</tspan></tspan></text></g></g><g id="SvgjsG1461" transform="translate(25,450)"><path id="SvgjsPath1462" d="M 0 0L 174 0L 174 53L 0 53Z" stroke="rgba(50,50,50,1)" stroke-width="2" fill-opacity="1" fill="#ffffff"></path><g id="SvgjsG1463"><text id="SvgjsText1464" font-family="微软雅黑" text-anchor="middle" font-size="13px" width="154px" fill="#323232" font-weight="400" align="middle" lineHeight="125%" anchor="middle" family="微软雅黑" size="13px" weight="400" font-style="" opacity="1" y="16.875" transform="rotate(0)"><tspan id="SvgjsTspan1465" dy="16" x="87"><tspan id="SvgjsTspan1466" style="text-decoration:;">userInfo 状态为 initial</tspan></tspan></text></g></g><g id="SvgjsG1467" transform="translate(437,450)"><path id="SvgjsPath1468" d="M 0 0L 174 0L 174 53L 0 53Z" stroke="rgba(50,50,50,1)" stroke-width="2" fill-opacity="1" fill="#ffffff"></path><g id="SvgjsG1469"><text id="SvgjsText1470" font-family="微软雅黑" text-anchor="middle" font-size="13px" width="154px" fill="#323232" font-weight="400" align="middle" lineHeight="125%" anchor="middle" family="微软雅黑" size="13px" weight="400" font-style="" opacity="1" y="16.875" transform="rotate(0)"><tspan id="SvgjsTspan1471" dy="16" x="87"><tspan id="SvgjsTspan1472" style="text-decoration:;">userInfo 状态为 stale</tspan></tspan></text></g></g><g id="SvgjsG1473" transform="translate(643,450)"><path id="SvgjsPath1474" d="M 0 0L 174 0L 174 53L 0 53Z" stroke="rgba(50,50,50,1)" stroke-width="2" fill-opacity="1" fill="#ffffff"></path><g id="SvgjsG1475"><text id="SvgjsText1476" font-family="微软雅黑" text-anchor="middle" font-size="13px" width="154px" fill="#323232" font-weight="400" align="middle" lineHeight="125%" anchor="middle" family="微软雅黑" size="13px" weight="400" font-style="" opacity="1" y="16.875" transform="rotate(0)"><tspan id="SvgjsTspan1477" dy="16" x="87"><tspan id="SvgjsTspan1478" style="text-decoration:;">userInfo 状态为 fresh</tspan></tspan></text></g></g><g id="SvgjsG1479" transform="translate(851.5,450)"><path id="SvgjsPath1480" d="M 0 0L 167 0L 167 53L 0 53Z" stroke="rgba(50,50,50,1)" stroke-width="2" fill-opacity="1" fill="#ffffff"></path><g id="SvgjsG1481"><text id="SvgjsText1482" font-family="微软雅黑" text-anchor="middle" font-size="13px" width="147px" fill="#323232" font-weight="400" align="middle" lineHeight="125%" anchor="middle" family="微软雅黑" size="13px" weight="400" font-style="" opacity="1" y="16.875" transform="rotate(0)"><tspan id="SvgjsTspan1483" dy="16" x="83.5"><tspan id="SvgjsTspan1484" style="text-decoration:;">userInfo 状态为 fetching</tspan></tspan></text></g></g><g id="SvgjsG1485" transform="translate(233,450)"><path id="SvgjsPath1486" d="M 0 0L 174 0L 174 53L 0 53Z" stroke="rgba(50,50,50,1)" stroke-width="2" fill-opacity="1" fill="#ffffff"></path><g id="SvgjsG1487"><text id="SvgjsText1488" font-family="微软雅黑" text-anchor="middle" font-size="13px" width="154px" fill="#323232" font-weight="400" align="middle" lineHeight="125%" anchor="middle" family="微软雅黑" size="13px" weight="400" font-style="" opacity="1" y="16.875" transform="rotate(0)"><tspan id="SvgjsTspan1489" dy="16" x="87"><tspan id="SvgjsTspan1490" style="text-decoration:;">userInfo 状态为 invalid</tspan></tspan></text></g></g><g id="SvgjsG1491" transform="translate(503.75,699)"><path id="SvgjsPath1492" d="M 0 0L 174 0L 174 63L 0 63Z" stroke="rgba(50,50,50,1)" stroke-width="2" fill-opacity="1" fill="#ffffff"></path><g id="SvgjsG1493"><text id="SvgjsText1494" font-family="微软雅黑" text-anchor="middle" font-size="13px" width="154px" fill="#323232" font-weight="400" align="middle" lineHeight="125%" anchor="middle" family="微软雅黑" size="13px" weight="400" font-style="" opacity="1" y="21.875" transform="rotate(0)"><tspan id="SvgjsTspan1495" dy="16" x="87"><tspan id="SvgjsTspan1496" style="text-decoration:;">使用缓存</tspan></tspan></text></g></g><g id="SvgjsG1497" transform="translate(848,699)"><path id="SvgjsPath1498" d="M 0 0L 174 0L 174 63L 0 63Z" stroke="rgba(50,50,50,1)" stroke-width="2" fill-opacity="1" fill="#ffffff"></path><g id="SvgjsG1499"><text id="SvgjsText1500" font-family="微软雅黑" text-anchor="middle" font-size="13px" width="154px" fill="#323232" font-weight="400" align="middle" lineHeight="125%" anchor="middle" family="微软雅黑" size="13px" weight="400" font-style="" opacity="1" y="21.875" transform="rotate(0)"><tspan id="SvgjsTspan1501" dy="16" x="87"><tspan id="SvgjsTspan1502" style="text-decoration:;">什么都不做</tspan></tspan></text></g></g><g id="SvgjsG1503"><path id="SvgjsPath1504" d="M320 504L320 545L420.5 545L420.5 584.9000000000001" stroke="#323232" stroke-width="2" fill="none" marker-end="url(#SvgjsMarker1505)"></path></g><g id="SvgjsG1507"><path id="SvgjsPath1508" d="M524 504L524 545L420.5 545L420.5 584.9000000000001" stroke="#323232" stroke-width="2" fill="none" marker-end="url(#SvgjsMarker1509)"></path></g><g id="SvgjsG1511"><path id="SvgjsPath1512" d="M332.5 623.5L249 623.5L249 695.4000000000001" stroke="#323232" stroke-width="2" fill="none" marker-end="url(#SvgjsMarker1513)"></path><rect id="SvgjsRect1515" width="24" height="16" x="242.79999999999995" y="615.5" fill="#ffffff"></rect><text id="SvgjsText1516" font-family="微软雅黑" text-anchor="middle" font-size="13px" width="24px" fill="#323232" font-weight="400" align="top" lineHeight="16px" anchor="middle" family="微软雅黑" size="13px" weight="400" font-style="" opacity="1" y="613.875" transform="rotate(0)"><tspan id="SvgjsTspan1517" dy="16" x="254.79999999999995"><tspan id="SvgjsTspan1518" style="text-decoration:;">true</tspan></tspan></text></g><g id="SvgjsG1519"><path id="SvgjsPath1520" d="M508.5 623.5L590.75 623.5L590.75 695.4000000000001" stroke="#323232" stroke-width="2" fill="none" marker-end="url(#SvgjsMarker1521)"></path><rect id="SvgjsRect1523" width="29" height="16" x="571.075" y="615.5" fill="#ffffff"></rect><text id="SvgjsText1524" font-family="微软雅黑" text-anchor="middle" font-size="13px" width="29px" fill="#323232" font-weight="400" align="top" lineHeight="16px" anchor="middle" family="微软雅黑" size="13px" weight="400" font-style="" opacity="1" y="613.875" transform="rotate(0)"><tspan id="SvgjsTspan1525" dy="16" x="585.575"><tspan id="SvgjsTspan1526" style="text-decoration:;">false</tspan></tspan></text></g><g id="SvgjsG1527"><path id="SvgjsPath1528" d="M935 504L935 600.25L935 600.25L935 695.4000000000001" stroke="#323232" stroke-width="2" fill="none" marker-end="url(#SvgjsMarker1529)"></path></g><g id="SvgjsG1531"><path id="SvgjsPath1532" d="M112 504L112 730.5L158.39999999999998 730.5" stroke="#323232" stroke-width="2" fill="none" marker-end="url(#SvgjsMarker1533)"></path></g><g id="SvgjsG1535"><path id="SvgjsPath1536" d="M730 504L730 730.5L681.35 730.5" stroke="#323232" stroke-width="2" fill="none" marker-end="url(#SvgjsMarker1537)"></path></g><g id="SvgjsG1539"><path id="SvgjsPath1540" d="M276 79L276 135.5L364.4 135.5" stroke="#323232" stroke-width="2" fill="none" marker-end="url(#SvgjsMarker1541)"></path></g><g id="SvgjsG1543"><path id="SvgjsPath1544" d="M730 79L730 135.5L637.6 135.5" stroke="#323232" stroke-width="2" fill="none" marker-end="url(#SvgjsMarker1545)"></path></g><g id="SvgjsG1547"><path id="SvgjsPath1548" d="M501 171.5L501 192.25L501 192.25L501 210.4000000000001" stroke="#323232" stroke-width="2" fill="none" marker-end="url(#SvgjsMarker1549)"></path></g><g id="SvgjsG1551"><path id="SvgjsPath1552" d="M367 249L112 249L112 322.9000000000001" stroke="#323232" stroke-width="2" fill="none" marker-end="url(#SvgjsMarker1553)"></path></g><g id="SvgjsG1555"><path id="SvgjsPath1556" d="M112 397.5L112 420L112 420L112 446.4000000000001" stroke="#323232" stroke-width="2" fill="none" marker-end="url(#SvgjsMarker1557)"></path></g><g id="SvgjsG1559" transform="translate(828,326.5)"><path id="SvgjsPath1560" d="M 0 0L 214 0L 214 70L 0 70Z" stroke="rgba(50,50,50,1)" stroke-width="2" fill-opacity="1" fill="#ffffff"></path><g id="SvgjsG1561"><text id="SvgjsText1562" font-family="微软雅黑" text-anchor="middle" font-size="13px" width="194px" fill="#323232" font-weight="400" align="middle" lineHeight="125%" anchor="middle" family="微软雅黑" size="13px" weight="400" font-style="" opacity="1" y="25.375" transform="rotate(0)"><tspan id="SvgjsTspan1563" dy="16" x="107"><tspan id="SvgjsTspan1564" style="text-decoration:;">第二、第三、...、第十</tspan></tspan></text></g></g><g id="SvgjsG1565"><path id="SvgjsPath1566" d="M935 397.5L935 422.5L935 422.5L935 446.4000000000001" stroke="#323232" stroke-width="2" fill="none" marker-end="url(#SvgjsMarker1567)"></path></g><g id="SvgjsG1569"><path id="SvgjsPath1570" d="M635 249L935 249L935 322.9000000000001" stroke="#323232" stroke-width="2" fill="none" marker-end="url(#SvgjsMarker1571)"></path></g><g id="SvgjsG1573"><path id="SvgjsPath1574" d="M249 763L249 788.5L249 788.5L249 811.4000000000001" stroke="#323232" stroke-width="2" fill="none" marker-end="url(#SvgjsMarker1575)"></path></g><g id="SvgjsG1577"><path id="SvgjsPath1578" d="M200 361.5L524 361.5L524 446.4000000000001" stroke="#323232" stroke-width="2" fill="none" marker-end="url(#SvgjsMarker1579)"></path></g><g id="SvgjsG1581"><path id="SvgjsPath1582" d="M827 361.5L524 361.5L524 446.4000000000001" stroke="#323232" stroke-width="2" fill="none" marker-end="url(#SvgjsMarker1583)"></path></g></svg>